{
  "accessors": [
    {
      "bufferView": 2,
      "componentType": 5126,
      "count": 857,
      "max": [
        41746.66015625,
        -32035.1796875,
        193675.234375
      ],
      "min": [
        -41746.66015625,
        -33567.41015625,
        73248.0078125
      ],
      "type": "VEC3"
    },
    {
      "bufferView": 2,
      "byteOffset": 10284,
      "componentType": 5126,
      "count": 857,
      "max": [
        1,
        1,
        1
      ],
      "min": [
        -1,
        -0.9989396333694458,
        -1
      ],
      "type": "VEC3"
    },
    {
      "bufferView": 3,
      "componentType": 5126,
      "count": 857,
      "max": [
        0.88037848472595215,
        1,
        0,
        1
      ],
      "min": [
        -0.70710766315460205,
        -0.97556215524673462,
        -1,
        -1
      ],
      "type": "VEC4"
    },
    {
      "bufferView": 1,
      "componentType": 5126,
      "count": 857,
      "max": [
        0.98955631256103516,
        0.98788714408874512
      ],
      "min": [
        0.010443568229675293,
        0.012112736701965332
      ],
      "type": "VEC2"
    },
    {
      "bufferView": 0,
      "componentType": 5125,
      "count": 3462,
      "max": [
        856
      ],
      "min": [
        0
      ],
      "type": "SCALAR"
    },
    {
      "bufferView": 2,
      "byteOffset": 20568,
      "componentType": 5126,
      "count": 1648,
      "max": [
        12385.7431640625,
        -17819.994140625,
        173704.875
      ],
      "min": [
        -13872.6181640625,
        -33758.2734375,
        109162.9375
      ],
      "type": "VEC3"
    },
    {
      "bufferView": 2,
      "byteOffset": 40344,
      "componentType": 5126,
      "count": 1648,
      "max": [
        1,
        1,
        1
      ],
      "min": [
        -1,
        -1,
        -1
      ],
      "type": "VEC3"
    },
    {
      "bufferView": 3,
      "byteOffset": 13712,
      "componentType": 5126,
      "count": 1648,
      "max": [
        1,
        1,
        1,
        1
      ],
      "min": [
        -0.97534745931625366,
        -1,
        -1,
        1
      ],
      "type": "VEC4"
    },
    {
      "bufferView": 1,
      "byteOffset": 6856,
      "componentType": 5126,
      "count": 1648,
      "max": [
        0.998008131980896,
        0.93101763725280762
      ],
      "min": [
        0.0019920321647077799,
        0.0018583188066259027
      ],
      "type": "VEC2"
    },
    {
      "bufferView": 0,
      "byteOffset": 13848,
      "componentType": 5125,
      "count": 4728,
      "max": [
        1647
      ],
      "min": [
        0
      ],
      "type": "SCALAR"
    },
    {
      "bufferView": 2,
      "byteOffset": 60120,
      "componentType": 5126,
      "count": 4722,
      "max": [
        10365.453125,
        3416.6953125,
        211864
      ],
      "min": [
        -74143.375,
        -33690.19140625,
        101525.671875
      ],
      "type": "VEC3"
    },
    {
      "bufferView": 2,
      "byteOffset": 116784,
      "componentType": 5126,
      "count": 4722,
      "max": [
        1,
        1,
        1
      ],
      "min": [
        -1,
        -1,
        -1
      ],
      "type": "VEC3"
    },
    {
      "bufferView": 3,
      "byteOffset": 40080,
      "componentType": 5126,
      "count": 4722,
      "max": [
        1,
        1,
        1,
        1
      ],
      "min": [
        -0.84751898050308228,
        -1,
        -1,
        1
      ],
      "type": "VEC4"
    },
    {
      "bufferView": 1,
      "byteOffset": 20040,
      "componentType": 5126,
      "count": 4722,
      "max": [
        0.99800795316696167,
        0.93016564846038818
      ],
      "min": [
        0.0019920321647077799,
        0.001856618095189333
      ],
      "type": "VEC2"
    },
    {
      "bufferView": 0,
      "byteOffset": 32760,
      "componentType": 5125,
      "count": 15468,
      "max": [
        4721
      ],
      "min": [
        0
      ],
      "type": "SCALAR"
    },
    {
      "bufferView": 2,
      "byteOffset": 173448,
      "componentType": 5126,
      "count": 904,
      "max": [
        75780.125,
        13447.8125,
        186293.34375
      ],
      "min": [
        49815.609375,
        -33611.6484375,
        96574.21875
      ],
      "type": "VEC3"
    },
    {
      "bufferView": 2,
      "byteOffset": 184296,
      "componentType": 5126,
      "count": 904,
      "max": [
        1,
        1,
        1
      ],
      "min": [
        -1,
        -1,
        -1
      ],
      "type": "VEC3"
    },
    {
      "bufferView": 3,
      "byteOffset": 115632,
      "componentType": 5126,
      "count": 904,
      "max": [
        1,
        1,
        1,
        1
      ],
      "min": [
        -0.8216547966003418,
        -1,
        -1,
        -1
      ],
      "type": "VEC4"
    },
    {
      "bufferView": 1,
      "byteOffset": 57816,
      "componentType": 5126,
      "count": 904,
      "max": [
        0.99800801277160645,
        0.98370987176895142
      ],
      "min": [
        0.0019920319318771362,
        0.0019634929485619068
      ],
      "type": "VEC2"
    },
    {
      "bufferView": 0,
      "byteOffset": 94632,
      "componentType": 5125,
      "count": 2181,
      "max": [
        903
      ],
      "min": [
        0
      ],
      "type": "SCALAR"
    },
    {
      "bufferView": 2,
      "byteOffset": 195144,
      "componentType": 5126,
      "count": 1478,
      "max": [
        68752.5625,
        2402.2451171875,
        179507.28125
      ],
      "min": [
        59164.9765625,
        -17337.53125,
        150309.3125
      ],
      "type": "VEC3"
    },
    {
      "bufferView": 2,
      "byteOffset": 212880,
      "componentType": 5126,
      "count": 1478,
      "max": [
        1,
        1,
        1
      ],
      "min": [
        -1,
        -1,
        -1
      ],
      "type": "VEC3"
    },
    {
      "bufferView": 3,
      "byteOffset": 130096,
      "componentType": 5126,
      "count": 1478,
      "max": [
        1,
        1,
        1,
        1
      ],
      "min": [
        -0.95136678218841553,
        -1,
        -1,
        -1
      ],
      "type": "VEC4"
    },
    {
      "bufferView": 1,
      "byteOffset": 65048,
      "componentType": 5126,
      "count": 1478,
      "max": [
        0.96475303173065186,
        0.99601048231124878
      ],
      "min": [
        0.0057723522186279297,
        0.0061358213424682617
      ],
      "type": "VEC2"
    },
    {
      "bufferView": 0,
      "byteOffset": 103356,
      "componentType": 5125,
      "count": 3792,
      "max": [
        1477
      ],
      "min": [
        0
      ],
      "type": "SCALAR"
    }
  ],
  "asset": {
    "extras": {
      "author": "Matt LM (https://sketchfab.com/Matt_LeMoine)",
      "license": "CC-BY-NC-SA-4.0 (http://creativecommons.org/licenses/by-nc-sa/4.0/)",
      "source": "https://sketchfab.com/3d-models/room-furnishings-d3258ae84e524e33ac78759db212a805",
      "title": "Room Furnishings"
    },
    "generator": "Sketchfab-4.58.0",
    "version": "2.0"
  },
  "bufferViews": [
    {
      "buffer": 0,
      "byteLength": 118524,
      "byteOffset": 0,
      "name": "floatBufferViews",
      "target": 34963
    },
    {
      "buffer": 0,
      "byteLength": 76872,
      "byteOffset": 118524,
      "byteStride": 8,
      "name": "floatBufferViews",
      "target": 34962
    },
    {
      "buffer": 0,
      "byteLength": 230616,
      "byteOffset": 195396,
      "byteStride": 12,
      "name": "floatBufferViews",
      "target": 34962
    },
    {
      "buffer": 0,
      "byteLength": 153744,
      "byteOffset": 426012,
      "byteStride": 16,
      "name": "floatBufferViews",
      "target": 34962
    }
  ],
  "buffers": [
    {
      "byteLength": 579756,
      "uri": "scene.bin"
    }
  ],
  "images": [
    {
      "uri": "textures/material_metallicRoughness.png"
    },
    {
      "uri": "textures/material_normal.png"
    },
    {
      "uri": "textures/material_baseColor.png"
    },
    {
      "uri": "textures/Shelving_metallicRoughness.png"
    },
    {
      "uri": "textures/Shelving_normal.png"
    },
    {
      "uri": "textures/Shelving_baseColor.png"
    },
    {
      "uri": "textures/WraparoundCouch_metallicRoughness.png"
    },
    {
      "uri": "textures/WraparoundCouch_normal.png"
    },
    {
      "uri": "textures/WraparoundCouch_baseColor.png"
    },
    {
      "uri": "textures/Carpet_metallicRoughness.png"
    },
    {
      "uri": "textures/Carpet_normal.png"
    },
    {
      "uri": "textures/Carpet_baseColor.png"
    },
    {
      "uri": "textures/CoffeeTable_metallicRoughness.png"
    },
    {
      "uri": "textures/CoffeeTable_normal.png"
    },
    {
      "uri": "textures/CoffeeTable_baseColor.png"
    }
  ],
  "materials": [
    {
      "doubleSided": true,
      "emissiveFactor": [
        0,
        0,
        0
      ],
      "name": "Carpet",
      "normalTexture": {
        "index": 10,
        "scale": 1,
        "texCoord": 0
      },
      "occlusionTexture": {
        "index": 9,
        "strength": 1,
        "texCoord": 0
      },
      "pbrMetallicRoughness": {
        "baseColorFactor": [
          1,
          1,
          1,
          1
        ],
        "baseColorTexture": {
          "index": 11,
          "texCoord": 0
        },
        "metallicFactor": 0,
        "metallicRoughnessTexture": {
          "index": 9,
          "texCoord": 0
        },
        "roughnessFactor": 1
      }
    },
    {
      "doubleSided": true,
      "emissiveFactor": [
        0,
        0,
        0
      ],
      "name": "CoffeeTable",
      "normalTexture": {
        "index": 13,
        "scale": 1,
        "texCoord": 0
      },
      "occlusionTexture": {
        "index": 12,
        "strength": 1,
        "texCoord": 0
      },
      "pbrMetallicRoughness": {
        "baseColorFactor": [
          1,
          1,
          1,
          1
        ],
        "baseColorTexture": {
          "index": 14,
          "texCoord": 0
        },
        "metallicFactor": 1,
        "metallicRoughnessTexture": {
          "index": 12,
          "texCoord": 0
        },
        "roughnessFactor": 1
      }
    },
    {
      "doubleSided": true,
      "emissiveFactor": [
        0,
        0,
        0
      ],
      "name": "WraparoundCouch",
      "normalTexture": {
        "index": 7,
        "scale": 1,
        "texCoord": 0
      },
      "occlusionTexture": {
        "index": 6,
        "strength": 1,
        "texCoord": 0
      },
      "pbrMetallicRoughness": {
        "baseColorFactor": [
          1,
          1,
          1,
          1
        ],
        "baseColorTexture": {
          "index": 8,
          "texCoord": 0
        },
        "metallicFactor": 1,
        "metallicRoughnessTexture": {
          "index": 6,
          "texCoord": 0
        },
        "roughnessFactor": 1
      }
    },
    {
      "doubleSided": true,
      "emissiveFactor": [
        0,
        0,
        0
      ],
      "name": "Shelving",
      "normalTexture": {
        "index": 4,
        "scale": 1,
        "texCoord": 0
      },
      "occlusionTexture": {
        "index": 3,
        "strength": 1,
        "texCoord": 0
      },
      "pbrMetallicRoughness": {
        "baseColorFactor": [
          1,
          1,
          1,
          1
        ],
        "baseColorTexture": {
          "index": 5,
          "texCoord": 0
        },
        "metallicFactor": 1,
        "metallicRoughnessTexture": {
          "index": 3,
          "texCoord": 0
        },
        "roughnessFactor": 1
      }
    },
    {
      "doubleSided": true,
      "emissiveFactor": [
        0,
        0,
        0
      ],
      "name": "material",
      "normalTexture": {
        "index": 1,
        "scale": 1,
        "texCoord": 0
      },
      "occlusionTexture": {
        "index": 0,
        "strength": 1,
        "texCoord": 0
      },
      "pbrMetallicRoughness": {
        "baseColorFactor": [
          1,
          1,
          1,
          1
        ],
        "baseColorTexture": {
          "index": 2,
          "texCoord": 0
        },
        "metallicFactor": 1,
        "metallicRoughnessTexture": {
          "index": 0,
          "texCoord": 0
        },
        "roughnessFactor": 1
      }
    }
  ],
  "meshes": [
    {
      "name": "pPlane2_Carpet_0",
      "primitives": [
        {
          "attributes": {
            "NORMAL": 1,
            "POSITION": 0,
            "TANGENT": 2,
            "TEXCOORD_0": 3
          },
          "indices": 4,
          "material": 0,
          "mode": 4
        }
      ]
    },
    {
      "name": "pPlane2_CoffeeTable_0",
      "primitives": [
        {
          "attributes": {
            "NORMAL": 6,
            "POSITION": 5,
            "TANGENT": 7,
            "TEXCOORD_0": 8
          },
          "indices": 9,
          "material": 1,
          "mode": 4
        }
      ]
    },
    {
      "name": "pPlane2_WraparoundCouch_0",
      "primitives": [
        {
          "attributes": {
            "NORMAL": 11,
            "POSITION": 10,
            "TANGENT": 12,
            "TEXCOORD_0": 13
          },
          "indices": 14,
          "material": 2,
          "mode": 4
        }
      ]
    },
    {
      "name": "pPlane2_Shelving_0",
      "primitives": [
        {
          "attributes": {
            "NORMAL": 16,
            "POSITION": 15,
            "TANGENT": 17,
            "TEXCOORD_0": 18
          },
          "indices": 19,
          "material": 3,
          "mode": 4
        }
      ]
    },
    {
      "name": "pPlane2_TV_0",
      "primitives": [
        {
          "attributes": {
            "NORMAL": 21,
            "POSITION": 20,
            "TANGENT": 22,
            "TEXCOORD_0": 23
          },
          "indices": 24,
          "material": 4,
          "mode": 4
        }
      ]
    }
  ],
  "nodes": [
    {
      "children": [
        1
      ],
      "name": "RootNode (gltf orientation matrix)",
      "rotation": [
        -0.70710678118654746,
        -0,
        -0,
        0.70710678118654757
      ]
    },
    {
      "children": [
        2
      ],
      "matrix": [
        -0.99999886751174927,
        0,
        0.0015084916958585382,
        0,
        0,
        1,
        0,
        0,
        -0.0015084916958585382,
        0,
        -0.99999886751174927,
        0,
        -20.135814666748047,
        0,
        -179.98483276367188,
        1
      ],
      "name": "RootNode (model correction matrix)"
    },
    {
      "children": [
        3
      ],
      "matrix": [
        1,
        0,
        0,
        0,
        0,
        -1,
        0,
        0,
        0,
        0,
        -1,
        0,
        0,
        0,
        0,
        1
      ],
      "name": "0409fc037b014ad4b728e1ea1e8c18b8.fbx"
    },
    {
      "children": [
        4
      ],
      "name": "RootNode"
    },
    {
      "children": [
        5,
        6,
        7,
        8,
        9
      ],
      "matrix": [
        0.0038224696181714535,
        0,
        0,
        0,
        0,
        8.4875875620481566e-19,
        0.0038224696181714535,
        0,
        0,
        -0.0038224696181714535,
        8.4875875620481566e-19,
        0,
        -13.128214836120605,
        544.916015625,
        128.81805419921875,
        1
      ],
      "name": "pPlane2"
    },
    {
      "mesh": 0,
      "name": "pPlane2_Carpet_0"
    },
    {
      "mesh": 1,
      "name": "pPlane2_CoffeeTable_0"
    },
    {
      "mesh": 2,
      "name": "pPlane2_WraparoundCouch_0"
    },
    {
      "mesh": 3,
      "name": "pPlane2_Shelving_0"
    },
    {
      "mesh": 4,
      "name": "pPlane2_TV_0"
    }
  ],
  "samplers": [
    {
      "magFilter": 9729,
      "minFilter": 9987,
      "wrapS": 10497,
      "wrapT": 10497
    }
  ],
  "scene": 0,
  "scenes": [
    {
      "name": "OSG_Scene",
      "nodes": [
        0
      ]
    }
  ],
  "textures": [
    {
      "sampler": 0,
      "source": 0
    },
    {
      "sampler": 0,
      "source": 1
    },
    {
      "sampler": 0,
      "source": 2
    },
    {
      "sampler": 0,
      "source": 3
    },
    {
      "sampler": 0,
      "source": 4
    },
    {
      "sampler": 0,
      "source": 5
    },
    {
      "sampler": 0,
      "source": 6
    },
    {
      "sampler": 0,
      "source": 7
    },
    {
      "sampler": 0,
      "source": 8
    },
    {
      "sampler": 0,
      "source": 9
    },
    {
      "sampler": 0,
      "source": 10
    },
    {
      "sampler": 0,
      "source": 11
    },
    {
      "sampler": 0,
      "source": 12
    },
    {
      "sampler": 0,
      "source": 13
    },
    {
      "sampler": 0,
      "source": 14
    }
  ]
}

